<svg xmlns="http://www.w3.org/2000/svg" width="106.642" height="47.941" viewBox="0 0 106.642 47.941">
  <g id="Group_50" data-name="Group 50" transform="translate(-261.31 -5596.646)">
    <path id="Path_66" data-name="Path 66" d="M107.092,22.766a10.476,10.476,0,1,0,10.477,10.476,10.476,10.476,0,0,0-10.477-10.476m0,15.679a5.2,5.2,0,1,1,5.2-5.2,5.2,5.2,0,0,1-5.2,5.2" transform="translate(195.76 5581.2)" fill="#fff"/>
    <path id="Path_67" data-name="Path 67" d="M10.54,7.268A10.447,10.447,0,0,0,5.254,8.7V4.1A4.094,4.094,0,0,0,1.2.006l0,0H0V2.621L0,28.279H10.541a10.505,10.505,0,0,0,0-21.01m0,15.757H5.288V17.656h0a5.252,5.252,0,1,1,5.25,5.369" transform="translate(261.31 5596.643)" fill="#fff"/>
    <path id="Path_68" data-name="Path 68" d="M74.065,0l0,0h-1.2V2.616l0,25.658h1.158a4.1,4.1,0,0,0,4.095-4.095V4.095A4.094,4.094,0,0,0,74.065,0" transform="translate(211.877 5596.646)" fill="#fff"/>
    <path id="Path_69" data-name="Path 69" d="M261.632,22.638a8.556,8.556,0,0,0-5.965,2.422,8.538,8.538,0,0,0-10.405-1.171,4.08,4.08,0,0,0-2.948-1.3l0,0h-1.2v21.01h1.158a4.094,4.094,0,0,0,4.094-4.095V31.23a3.338,3.338,0,1,1,6.677,0V43.591H254.2a4.1,4.1,0,0,0,4.095-4.095V31.23h0v0a3.338,3.338,0,0,1,6.677,0V43.59h1.158a4.1,4.1,0,0,0,4.095-4.095V31.229h0a8.6,8.6,0,0,0-8.592-8.591" transform="translate(97.728 5581.325)" fill="#fff"/>
    <path id="Path_70" data-name="Path 70" d="M178.827,22.761A10.476,10.476,0,1,0,189.3,33.237a10.476,10.476,0,0,0-10.477-10.476m0,15.679a5.2,5.2,0,1,1,5.2-5.2,5.2,5.2,0,0,1-5.2,5.2" transform="translate(147.091 5581.203)" fill="#fff"/>
    <path id="Path_71" data-name="Path 71" d="M21.787,47.726a3.535,3.535,0,1,1,3.534,3.614H21.785V47.726Z" transform="translate(246.53 5566.611)" fill="#fff"/>
    <path id="Path_72" data-name="Path 72" d="M311.827,107.382l-.463-.2-2.313,5.429h0l-.773,1.816-1.547-3.879a.1.1,0,0,0-.013-.026l-.973-2.441a1.33,1.33,0,0,0-1.7-.748l-.467.186,3.695,9.258-1.529,3.59.439.187a1.307,1.307,0,0,0,.517.106,1.323,1.323,0,0,0,1.219-.8l2.266-5.319a.1.1,0,0,0,.01-.036l.011-.019a.417.417,0,0,0,.03-.057l2.266-5.32a1.329,1.329,0,0,0-.675-1.724" transform="translate(55.345 5523.926)" fill="#fff"/>
    <path id="Path_73" data-name="Path 73" d="M83.274,111.944v-3.591a1.178,1.178,0,0,0-1.166-1.178h-.347v1.273a5.208,5.208,0,1,0,0,7.35v1.225h.333a1.179,1.179,0,0,0,1.179-1.179v-1.706h0V112.3c0-.059.009-.118.009-.178s-.007-.119-.009-.179m-5.2,3.789a3.61,3.61,0,1,1,3.61-3.61,3.614,3.614,0,0,1-3.61,3.61" transform="translate(211.874 5524.109)" fill="#fff"/>
    <path id="Path_74" data-name="Path 74" d="M228.545,108.863a5.131,5.131,0,0,0-9.13,3.254v.125l0,0a5.155,5.155,0,0,0,5.31,5.1,5.079,5.079,0,0,0,4.2-2.161l.011-.016-.134-.261a1.017,1.017,0,0,0-1.173-.517l-.009,0a1.064,1.064,0,0,0-.158.062.73.73,0,0,0-.15.128l0,0-.018.019a3.6,3.6,0,0,1-6.19-1.86l8.586.009h.016l0-.18a5.555,5.555,0,0,0-1.157-3.7m-.532,2.362H221.1a3.567,3.567,0,0,1,6.913,0" transform="translate(112.447 5524.086)" fill="#fff"/>
    <path id="Path_75" data-name="Path 75" d="M155.381,111.944v-3.591a1.178,1.178,0,0,0-1.166-1.178h-.347v1.273a5.208,5.208,0,1,0,0,7.35v1.225h.333a1.179,1.179,0,0,0,1.179-1.179v-1.706h0V112.3c0-.059.009-.118.009-.178s-.007-.119-.009-.179m-5.2,3.789a3.61,3.61,0,1,1,3.61-3.61,3.614,3.614,0,0,1-3.61,3.61" transform="translate(162.952 5524.109)" fill="#fff"/>
    <path id="Path_76" data-name="Path 76" d="M192.168,98.42A1.179,1.179,0,0,0,191,97.242h-.347v4.778a5.208,5.208,0,1,0,0,7.026v1.414h.333a1.179,1.179,0,0,0,1.179-1.179V98.42Zm-5.346,10.722a3.61,3.61,0,1,1,3.61-3.61,3.615,3.615,0,0,1-3.61,3.61" transform="translate(138.094 5530.672)" fill="#fff"/>
    <path id="Path_77" data-name="Path 77" d="M118.356,114.308l-.007,0a1.017,1.017,0,0,0-.156.061.746.746,0,0,0-.159.138l0,0-.009.009a3.681,3.681,0,0,1-6.381-2.433,3.6,3.6,0,0,1,3.718-3.543,3.65,3.65,0,0,1,3.1,1.781l.051.087h.031l.275-.162a1.188,1.188,0,0,0,.534-1.367l0-.006a.841.841,0,0,0-.043-.106l-.013-.03a1.523,1.523,0,0,0-.18-.25,5.37,5.37,0,0,0-3.766-1.538,5.173,5.173,0,1,0,.052,10.339,5.163,5.163,0,0,0,4.269-2.2l.005-.008-.133-.258a1.024,1.024,0,0,0-1.179-.518" transform="translate(186.683 5524.086)" fill="#fff"/>
    <path id="Path_78" data-name="Path 78" d="M270.006,109.477a3.716,3.716,0,0,0-3.783-2.777l-.045,0c-.023,0-.046,0-.07,0-.173,0-.3.017-.363.02l0,0a4.09,4.09,0,0,0-2.807,1.547l-.023-.032a4.148,4.148,0,0,0-3.287-1.542,3.062,3.062,0,0,0-2.342.967,1.326,1.326,0,0,0-1.179-.78h-.344l-.163,0v9.945l.008.186h.471A1.324,1.324,0,0,0,257.4,115.7l0-4.447a3.08,3.08,0,0,1,.4-1.891,2.336,2.336,0,0,1,1.889-.908,2.382,2.382,0,0,1,1.935,1.039,2.844,2.844,0,0,1,.411,1.761l0,5.769h.477a1.324,1.324,0,0,0,1.323-1.323v-.6l0,0v-3.784a3.321,3.321,0,0,1,.354-1.883,2.4,2.4,0,0,1,1.9-.975,2.327,2.327,0,0,1,1.956,1.027,3.29,3.29,0,0,1,.424,1.913l0,5.63h.477a1.324,1.324,0,0,0,1.323-1.323v-3.72a9.755,9.755,0,0,0-.2-2.215c-.029-.1-.054-.194-.087-.284" transform="translate(87.895 5524.255)" fill="#fff"/>
  </g>
</svg>
