<svg id="Group_51" data-name="Group 51" xmlns="http://www.w3.org/2000/svg" width="17.466" height="17.466" viewBox="0 0 17.466 17.466">
  <path id="Path_79" data-name="Path 79" d="M16.119,68.976a1.615,1.615,0,1,0,1.615,1.615,1.617,1.617,0,0,0-1.615-1.615" transform="translate(-7.344 -61.87)" fill="#fff"/>
  <path id="Path_80" data-name="Path 80" d="M15.471,63.828H11.383A2.114,2.114,0,0,0,9.271,65.94v4.088a2.115,2.115,0,0,0,2.112,2.113h4.088a2.115,2.115,0,0,0,2.112-2.113V65.94a2.114,2.114,0,0,0-2.112-2.112m-2,6.678a2.522,2.522,0,1,1,2.522-2.522,2.525,2.525,0,0,1-2.522,2.522m2.669-4.613a.6.6,0,1,1,.6-.6.6.6,0,0,1-.6.6" transform="translate(-4.694 -59.264)" fill="#fff"/>
  <path id="Path_81" data-name="Path 81" d="M8.733,54.582a8.733,8.733,0,1,0,8.733,8.733,8.733,8.733,0,0,0-8.733-8.733m5.12,10.765a3.079,3.079,0,0,1-3.076,3.075H6.689a3.079,3.079,0,0,1-3.075-3.075V61.259a3.079,3.079,0,0,1,3.075-3.075h4.088a3.079,3.079,0,0,1,3.076,3.075Z" transform="translate(0 -54.582)" fill="#fff"/>
</svg>
