<svg id="Group_5" data-name="Group 5" xmlns="http://www.w3.org/2000/svg" width="16.219" height="25.793" viewBox="0 0 16.219 25.793">
  <g id="Path_12" data-name="Path 12" transform="translate(-5 -5)" fill="none" stroke-linecap="round" stroke-miterlimit="10">
    <path d="M13.109,30.793h0A8.109,8.109,0,0,1,5,22.684V13.109a8.11,8.11,0,0,1,16.219,0v9.574A8.11,8.11,0,0,1,13.109,30.793Z" stroke="none"/>
    <path d="M 13.10945701599121 28.79340171813965 C 16.47828674316406 28.79340171813965 19.21903800964355 26.05271148681641 19.21903800964355 22.68395233154297 L 19.21903800964355 13.10945224761963 C 19.21903800964355 9.740692138671875 16.47828674316406 7.000001907348633 13.10945701599121 7.000001907348633 C 9.740687370300293 7.000001907348633 6.999997138977051 9.740692138671875 6.999997138977051 13.10945224761963 L 6.999997138977051 22.68395233154297 C 6.999997138977051 26.05271148681641 9.740687370300293 28.79340171813965 13.10945701599121 28.79340171813965 M 13.10945701599121 30.79340171813965 C 8.630646705627441 30.79340171813965 4.999997138977051 27.16263198852539 4.999997138977051 22.68395233154297 L 4.999997138977051 13.10945224761963 C 4.999997138977051 8.630771636962891 8.630646705627441 5.000001907348633 13.10945701599121 5.000001907348633 C 17.5882568359375 5.000001907348633 21.21903800964355 8.630771636962891 21.21903800964355 13.10945224761963 L 21.21903800964355 22.68395233154297 C 21.21903800964355 27.16263198852539 17.5882568359375 30.79340171813965 13.10945701599121 30.79340171813965 Z" stroke="none" fill="#fff"/>
  </g>
  <line id="Line_1" data-name="Line 1" y2="9.701" transform="translate(8.11 11.242)" fill="none" stroke="#fff" stroke-linecap="round" stroke-miterlimit="10" stroke-width="2"/>
</svg>
