<svg id="Group_4" data-name="Group 4" xmlns="http://www.w3.org/2000/svg" xmlns:xlink="http://www.w3.org/1999/xlink" width="171.681" height="22.092" viewBox="0 0 171.681 22.092">
  <defs>
    <clipPath id="clip-path">
      <rect id="Rectangle_3" data-name="Rectangle 3" width="171.681" height="22.092" fill="none"/>
    </clipPath>
  </defs>
  <rect id="Rectangle_1" data-name="Rectangle 1" width="1.564" height="21.779" transform="translate(100.301 0.153)" fill="#04384d"/>
  <g id="Group_3" data-name="Group 3">
    <g id="Group_2" data-name="Group 2" clip-path="url(#clip-path)">
      <path id="Path_1" data-name="Path 1" d="M715.982,22.8V1.021h9.049a5.59,5.59,0,0,1,2.561.583,6.559,6.559,0,0,1,1.994,1.549,7.456,7.456,0,0,1,1.319,2.163,6.594,6.594,0,0,1,.476,2.454,7.223,7.223,0,0,1-.644,3.037,6.538,6.538,0,0,1-1.794,2.362,5.271,5.271,0,0,1-2.684,1.166l5.429,8.466h-1.81L724.6,14.579h-7.055V22.8Zm1.564-9.663h7.638a4.03,4.03,0,0,0,2.454-.767,5.071,5.071,0,0,0,1.61-1.994,6.14,6.14,0,0,0,.567-2.607,5.4,5.4,0,0,0-.66-2.623,5.6,5.6,0,0,0-1.748-1.963,4.2,4.2,0,0,0-2.439-.752h-7.423Z" transform="translate(-608.411 -0.868)" fill="#04384d"/>
      <path id="Path_2" data-name="Path 2" d="M839.374,1.02h1.35l9.2,21.779h-1.656L845.3,15.621H834.777L831.8,22.8H830.11Zm5.394,13.313L840.049,2.922l-4.737,11.411Z" transform="translate(-705.392 -0.867)" fill="#04384d"/>
      <path id="Path_3" data-name="Path 3" d="M978.925,22.085a9.124,9.124,0,0,1-4.141-.935,10.279,10.279,0,0,1-3.221-2.5,11.739,11.739,0,0,1-2.822-7.607,11.446,11.446,0,0,1,2.929-7.684A10.582,10.582,0,0,1,974.922.9a9.082,9.082,0,0,1,4.034-.9,8.987,8.987,0,0,1,4.156.951A10.346,10.346,0,0,1,986.318,3.5,11.986,11.986,0,0,1,988.4,7.054a11.276,11.276,0,0,1,.736,3.988,11.489,11.489,0,0,1-.767,4.187,11.354,11.354,0,0,1-2.163,3.528,10.375,10.375,0,0,1-3.252,2.438,9.2,9.2,0,0,1-4.034.89m.031-1.442a7.54,7.54,0,0,0,3.528-.828,8.675,8.675,0,0,0,2.73-2.209,10.076,10.076,0,0,0,1.733-3.083,10.492,10.492,0,0,0-.031-7.071,9.816,9.816,0,0,0-1.794-3.067,8.9,8.9,0,0,0-2.745-2.147,7.483,7.483,0,0,0-3.42-.8,7.606,7.606,0,0,0-3.558.828,8.5,8.5,0,0,0-2.715,2.209,10.781,10.781,0,0,0-1.748,3.083,9.973,9.973,0,0,0-.629,3.482,10.289,10.289,0,0,0,2.439,6.657,8.7,8.7,0,0,0,2.73,2.147,7.609,7.609,0,0,0,3.482.8m2.577-5.031h1.625l5.246,6.319h-1.626Z" transform="translate(-823.195 0.001)" fill="#04384d"/>
      <rect id="Rectangle_2" data-name="Rectangle 2" width="1.564" height="21.779" transform="translate(170.117 0.153)" fill="#04384d"/>
      <path id="Path_4" data-name="Path 4" d="M13.926,14.358a18.623,18.623,0,0,0-1.806-.947,15.144,15.144,0,0,0-1.777-.655,6.517,6.517,0,0,0-1.894-.291,2.69,2.69,0,0,0-1.194.231.8.8,0,0,0-.466.779.97.97,0,0,0,.466.837,4.906,4.906,0,0,0,1.325.578q.859.259,2.054.635a18,18,0,0,1,3.321,1.328,5.733,5.733,0,0,1,2.156,1.92,5.638,5.638,0,0,1,.757,3.1,6.532,6.532,0,0,1-.67,3.1,5.41,5.41,0,0,1-1.806,2.006,7.832,7.832,0,0,1-2.535,1.083A12.351,12.351,0,0,1,9,28.4a16.7,16.7,0,0,1-3.1-.306,20.915,20.915,0,0,1-3.132-.845A16.465,16.465,0,0,1,0,25.982L2.447,21a21.42,21.42,0,0,0,2.127,1.136,16.483,16.483,0,0,0,2.141.787,8.314,8.314,0,0,0,2.374.35,2.546,2.546,0,0,0,1.3-.236.718.718,0,0,0,.364-.625,1.03,1.03,0,0,0-.641-.941,9.589,9.589,0,0,0-1.675-.636q-1.034-.3-2.287-.709a12.924,12.924,0,0,1-2.972-1.374,4.942,4.942,0,0,1-1.719-1.823A5.453,5.453,0,0,1,.9,14.368a6.478,6.478,0,0,1,1.078-3.819A6.84,6.84,0,0,1,4.822,8.22a9.132,9.132,0,0,1,3.8-.8,11.694,11.694,0,0,1,2.928.364,18.9,18.9,0,0,1,2.651.889q1.238.524,2.171.991Z" transform="translate(0 -6.309)" fill="#04384d"/>
      <path id="Path_5" data-name="Path 5" d="M136.332,29.224a10.146,10.146,0,0,1-4.254-.814,7.7,7.7,0,0,1-2.9-2.24,9.368,9.368,0,0,1-1.646-3.273,14.157,14.157,0,0,1-.524-3.884V8.393h5.681V19.007a9.066,9.066,0,0,0,.2,1.948,5.452,5.452,0,0,0,.641,1.657,3.352,3.352,0,0,0,1.122,1.149,3.134,3.134,0,0,0,1.675.421,3.272,3.272,0,0,0,1.719-.421,3.154,3.154,0,0,0,1.122-1.164,5.918,5.918,0,0,0,.626-1.672,8.955,8.955,0,0,0,.2-1.919V8.393h5.681V19.012a13.689,13.689,0,0,1-.568,4.015,9.483,9.483,0,0,1-1.7,3.258,7.585,7.585,0,0,1-2.9,2.168,10.381,10.381,0,0,1-4.181.771" transform="translate(-107.927 -7.132)" fill="#04384d"/>
      <path id="Path_6" data-name="Path 6" d="M273.022,29.079V8.394h8.915a6.41,6.41,0,0,1,2.8.612,7.027,7.027,0,0,1,2.214,1.646,7.671,7.671,0,0,1,1.442,2.316,6.971,6.971,0,0,1,.51,2.593,7.337,7.337,0,0,1-.859,3.467,7.247,7.247,0,0,1-2.389,2.666,6.218,6.218,0,0,1-3.569,1.034H278.7v6.351Zm5.681-11.3h3a1.23,1.23,0,0,0,.67-.2,1.524,1.524,0,0,0,.539-.7,3.291,3.291,0,0,0,.218-1.311,3.015,3.015,0,0,0-.248-1.355,1.488,1.488,0,0,0-.612-.67,1.542,1.542,0,0,0-.714-.189H278.7Z" transform="translate(-232.002 -7.133)" fill="#04384d"/>
      <path id="Path_7" data-name="Path 7" d="M408.568,24.126v4.953H393.826V8.394h14.479v4.953h-8.8V16.26h7.516v4.6h-7.516v3.263Z" transform="translate(-334.657 -7.133)" fill="#04384d"/>
      <path id="Path_8" data-name="Path 8" d="M509.587,29.078V8.393h9.5a6.41,6.41,0,0,1,2.8.612,7.025,7.025,0,0,1,2.214,1.646,7.679,7.679,0,0,1,1.442,2.316,6.972,6.972,0,0,1,.51,2.593,7.59,7.59,0,0,1-.35,2.3,6.96,6.96,0,0,1-1.02,2.025,7.1,7.1,0,0,1-1.6,1.588l4.37,7.6h-6.235l-3.642-6.351h-2.3v6.351Z" transform="translate(-433.025 -7.132)" fill="#04384d"/>
      <path id="Path_9" data-name="Path 9" d="M533.125,42.6a1.243,1.243,0,0,1-.23-.022,1.354,1.354,0,0,1-.824-.516l-7.391-9.682a1.354,1.354,0,0,1-.281-.932,1.149,1.149,0,0,1,.446-.834,1.257,1.257,0,0,1,1.747.306l7.391,9.683a1.354,1.354,0,0,1,.281.931,1.149,1.149,0,0,1-.446.834,1.131,1.131,0,0,1-.692.232m-7.931-11.528a.581.581,0,0,0-.221.423.779.779,0,0,0,.164.535l7.391,9.682a.781.781,0,0,0,.472.3.564.564,0,0,0,.688-.525.779.779,0,0,0-.164-.535l-7.391-9.683a.683.683,0,0,0-.939-.2" transform="translate(-445.608 -25.815)" fill="#fff"/>
      <path id="Path_10" data-name="Path 10" d="M546.036,15.28a7.064,7.064,0,0,1-7.064,7.064c-.11,0-.219,0-.326-.008l-.849-1.112-4.868-6.38-.851-1.114a7.065,7.065,0,0,1,13.958,1.55" transform="translate(-452.137 -6.982)" fill="#ffc838"/>
      <path id="Path_11" data-name="Path 11" d="M549.842,20.96a6.066,6.066,0,0,1-7.233,5.944l-4.868-6.38a6.058,6.058,0,0,1,12.1.436" transform="translate(-456.949 -12.662)" fill="#ffda55"/>
    </g>
  </g>
</svg>
